<mxfile host="app.diagrams.net" modified="2024-01-19T03:28:37.598Z" agent="Mozilla/5.0 (Windows NT 10.0; Win64; x64) AppleWebKit/537.36 (KHTML, like Gecko) Chrome/120.0.0.0 Safari/537.36" version="22.1.21" etag="F3RQXk1B1gfT2JlFtFAa" type="github">
  <diagram name="페이지-1" id="eg8PEWVwnhvdh6Bl5ibd">
    <mxGraphModel>
      <root>
        <mxCell id="0" />
        <mxCell id="1" parent="0" />
      </root>
    </mxGraphModel>
  </diagram>
</mxfile>
